<svg width="153" height="72" viewBox="0 0 153 72" fill="none" xmlns="http://www.w3.org/2000/svg">
<g clip-path="url(#clip0_46_1961)">
<path d="M71.596 44.3666L68.1119 42.8326C67.2862 42.4289 64.3458 41.2178 61.7881 39.2598C61.3651 38.9368 60.9623 38.6139 60.5596 38.2909C53.7323 32.6189 52.9065 25.5744 52.9065 21.6181C52.9065 15.8048 54.9205 10.1934 58.5859 6.01506C59.2304 5.2884 59.895 4.62229 60.5596 4.01674C62.5735 2.20009 64.7486 0.928433 66.8632 0.0806615H60.5596V-0.0202637H39.977V25.6955H20.4819V-7.86427e-05H0V71.9999H20.502V42.9335H39.9971V71.9999H52.826L52.9065 53.9949C53.7323 54.7014 54.558 55.5289 55.4643 56.1345C56.1087 56.5987 57.9817 57.6484 60.5596 58.3548C63.1576 59.0815 66.4806 59.465 69.9647 58.5365C70.5085 58.3952 75.5232 57.386 77.7184 54.1765C77.9802 53.793 78.2622 52.7434 78.2622 51.4112C78.2622 51.0075 78.2622 50.079 77.8997 49.0697C76.8122 46.3246 73.8718 45.3153 71.596 44.3666Z" fill="#004098"/>
<path d="M132.599 0.121094V41.4197C132.599 43.64 132.599 45.3961 132.055 47.5357C131.854 48.4441 131.411 49.9781 130.021 51.815C128.652 53.5509 126.557 55.3675 122.066 55.3675C115.38 55.3675 112.822 51.3911 111.815 48.2422C110.989 45.6989 110.909 43.0345 110.909 37.524V0.121094H95.4818V18.9335C94.5755 18.106 93.6491 17.2986 92.7227 16.5719C91.9171 15.9865 90.3261 15.1186 88.3524 14.4121C85.8954 13.524 82.814 12.9184 79.7931 13.4634C78.907 13.6249 78.0007 13.968 77.0743 14.291C74.7784 14.9975 72.9658 17.0361 72.9658 19.9832C72.9658 24.2826 77.175 25.6955 80.0147 26.9066L84.9488 29.1472C86.1371 29.7123 87.2649 30.3381 88.3524 31.0244C92.4609 33.5879 95.7436 37.0193 97.4756 42.4087C97.8381 43.6198 98.6639 46.4861 98.6639 49.9579C98.6639 51.8957 98.3819 55.852 96.3277 60.3532L94.9179 62.9975C92.0178 67.6602 88.0101 70.3246 84.2037 71.8183C84.1433 71.8385 84.0828 71.8587 84.0224 71.8789L114.634 71.8183H122.086V71.7779C125.611 71.7376 127.745 71.455 129.377 71.1724C136.224 70.2641 142.729 68.1043 147.482 61.9882C150.785 57.709 152.98 52.1177 152.98 40.5719V0.121094H132.579H132.599Z" fill="#004098"/>
</g>
<defs>
<clipPath id="clip0_46_1961">
<rect width="153" height="72" fill="white"/>
</clipPath>
</defs>
</svg>
