<svg width="171" height="92" viewBox="0 0 171 92" fill="none" xmlns="http://www.w3.org/2000/svg">
<mask id="mask0_46_1918" style="mask-type:luminance" maskUnits="userSpaceOnUse" x="0" y="0" width="171" height="92">
<path d="M170.841 0H0.15918V92H170.841V0Z" fill="white"/>
</mask>
<g mask="url(#mask0_46_1918)">
<path d="M47.9208 56.9074C50.1817 56.6774 52.4873 56.5964 54.7212 56.7579C54.7212 56.7579 58.6664 50.7162 59.0406 48.9282C59.0406 48.9282 47.0166 50.351 40.8938 52.9403C40.8938 52.9403 33.4946 57.6659 30.395 61.2415C30.395 61.2415 35.4212 59.2046 41.9255 57.8508C41.1091 58.5905 40.212 59.4512 39.4763 60.2764C35.9057 60.9333 32.1556 61.9697 28.9304 63.5962C28.9304 63.5962 19.1246 74.0649 13.5713 87.8958C13.5713 87.8958 19.9567 68.8315 45.884 70.0482C45.884 70.0482 51.6415 60.4117 53.14 59.1646C53.14 59.1646 49.9728 59.0602 45.606 59.4516C46.2138 58.7046 47.0323 57.7561 47.9186 56.9074H47.9208Z" fill="#004098"/>
<path d="M14.6528 27.7446C14.5967 28.1383 14.5653 28.5366 14.5608 28.9349C14.2536 28.8353 13.9126 28.7381 13.6188 28.878C13.5381 28.916 13.4641 28.9705 13.3901 29.0274C12.6701 29.5704 11.9075 30.1964 11.6877 31.1022C11.6765 30.7418 11.6675 30.379 11.6563 30.0185C11.6496 29.7506 11.6406 29.4826 11.5846 29.2218C11.5419 29.025 11.4702 28.8353 11.4388 28.6362C11.367 28.1762 11.5106 27.7114 11.6945 27.287C11.8784 26.8626 12.0982 26.4524 12.1969 25.9995C12.2395 25.8026 12.2596 25.5964 12.3494 25.4185C12.4772 25.1672 12.8002 24.9799 13.0379 25.3095C13.0895 25.3403 13.1321 25.3853 13.1837 25.4138C13.2757 25.466 13.3856 25.4636 13.491 25.4612C15.375 25.4185 17.2657 25.6414 19.0959 26.1252C18.7325 26.5756 18.1517 26.744 17.6044 26.8649C16.6557 27.076 15.6935 27.2206 14.7268 27.3012C14.6976 27.4483 14.673 27.5976 14.6528 27.7446Z" fill="#004098"/>
<path d="M12.4814 39.3987C12.4814 39.3987 16.9806 45.2246 16.7272 47.3657C16.4738 49.507 14.2242 56.758 14.2242 56.758C14.2242 56.758 18.1312 47.7806 17.9922 46.3841C17.8531 44.9875 12.4814 39.3987 12.4814 39.3987Z" fill="#004098"/>
<path d="M17.8867 38.6377C17.8867 38.6377 19.6653 39.4392 19.6474 40.0912C19.6294 40.7433 19.2391 44.677 18.7076 45.4476C18.7076 45.4476 20.9662 42.0735 21.1815 39.2258C21.1815 39.2258 20.8047 39.4131 17.8867 38.6377Z" fill="#004098"/>
<path d="M23.8476 33.5824C23.8162 33.2386 23.8117 32.8805 23.9306 32.558C24.0473 32.2356 24.4689 32.0601 24.6618 31.9676C23.5246 32.1787 23.0357 32.034 22.6006 31.7163C22.4503 31.6072 22.2575 31.5645 22.1251 31.4318C21.8447 31.1449 21.7977 30.6967 21.6653 30.3102C21.6429 30.2438 21.6115 30.1703 21.5487 30.1418C21.4994 30.1205 21.4433 30.13 21.3917 30.1418C20.6964 30.3268 20.1806 30.9219 19.6445 31.4246C17.9018 33.0607 15.5244 33.9167 13.2008 33.746C12.7858 33.7152 12.3261 33.625 12.0838 33.2694C11.9784 33.1129 11.9179 32.9114 11.6868 32.8805C11.5298 32.8592 11.3751 32.935 11.2697 33.0607C11.088 33.2789 11.0611 33.5824 11.0409 33.8645C11.0499 33.7318 10.8682 33.4377 10.8301 33.2955C10.7695 33.0702 10.7336 32.8378 10.7089 32.6031C10.6708 32.219 10.6708 31.8206 10.6977 31.4412C10.5385 31.9439 10.3927 32.4514 10.2402 32.954C10.1684 33.1935 10.0944 33.4401 10.1056 33.6914C10.1168 33.9475 10.211 34.1918 10.3075 34.4265C10.839 35.7353 11.4222 37.0229 12.0502 38.2819C11.8977 36.9209 11.7765 35.42 12.5234 34.3008C13.6045 34.8296 14.8852 34.877 15.9976 34.4336C16.2645 35.6808 16.0582 37.0348 15.4324 38.1278C16.814 37.0917 17.8188 35.5077 18.1979 33.7649C18.7227 33.5942 19.2498 33.4306 19.7768 33.2765C19.954 33.2243 20.1334 33.1745 20.3174 33.1911C20.5528 33.2149 20.7637 33.3524 20.9633 33.4875C21.3693 33.7602 21.7775 34.0329 22.1386 34.3672C22.6724 34.8628 23.094 35.4817 23.4753 36.1171C23.4753 36.1171 23.4776 36.1171 23.4798 36.1148H23.4753C23.4753 36.1148 26.9428 41.758 27.0616 47.4155C27.0616 47.4155 29.2081 50.8038 28.755 53.2345C28.755 53.2345 30.0558 50.1971 32.1709 49.3029C32.1709 49.3029 33.077 46.9058 28.8738 43.0053C25.0655 39.4722 23.9194 34.0945 23.8364 33.5373" fill="#004098"/>
<path d="M12.8464 58.1381C13.858 60.5282 15.3382 62.7569 17.4353 64.1346C17.5833 64.2317 17.7336 64.3242 17.8704 64.4382C16.7265 64.303 15.5401 64.1512 14.5711 63.4943C14.1338 63.1981 14.0934 63.8025 13.692 63.4589C12.1018 61.0025 11.3504 56.7507 12.1265 53.8914C12.0883 54.6264 12.0502 55.3707 12.1758 56.0966C12.27 56.644 12.4561 57.1679 12.658 57.6827C12.7186 57.8345 12.7813 57.9886 12.8442 58.1404L12.8464 58.1381Z" fill="#004098"/>
<path d="M17.9566 55.5887C17.5193 58.541 17.8692 61.6211 18.9614 64.3761C19.0444 64.5849 19.2598 64.6323 19.4616 64.7008C19.5827 64.7413 19.7105 64.7602 19.8384 64.7744C20.2489 64.8218 20.6615 64.8292 21.0742 64.796C20.6211 63.9708 20.1793 63.1387 19.7666 62.2872C18.6744 60.03 17.7907 57.5308 18.0531 55.01C18.0172 55.2023 17.9858 55.3941 17.9566 55.5887Z" fill="#004098"/>
<path d="M28.4252 55.1075C28.0507 56.3831 27.3374 57.4765 26.5636 58.5313C25.8773 59.4679 25.1663 60.381 24.4284 61.2702C23.7309 62.112 23.0042 62.9395 22.1475 63.5936C24.9331 60.4472 26.8597 56.459 27.638 52.2266C27.8353 53.0872 27.9475 53.9907 27.9632 54.8752C27.9676 55.091 27.9632 55.309 27.9093 55.5179C28.1493 55.2497 28.3422 54.9323 28.4701 54.5882C28.4947 54.7211 28.4656 54.9774 28.4274 55.1075H28.4252Z" fill="#004098"/>
<path d="M19.0124 24.0979C19.8893 24.1999 20.7327 24.5176 21.5221 24.9325C22.3117 25.3475 23.0495 25.862 23.7829 26.3789C21.9931 25.5325 20.1517 24.8021 18.0592 24.9254C17.7631 24.942 17.467 24.8543 17.1777 24.7784C17.7698 24.5034 18.3754 24.2236 19.0124 24.0979Z" fill="#004098"/>
<path d="M22.9395 24.074C23.4778 24.1949 23.9824 24.4486 24.4467 24.7568C24.911 25.0651 25.3394 25.435 25.7655 25.8025C24.7046 25.1599 23.6056 24.5837 22.298 24.5245C22.1119 24.515 21.9347 24.4415 21.7598 24.3751C22.1433 24.2423 22.5358 24.1095 22.9395 24.074Z" fill="#004098"/>
<path d="M36.9602 24.667C36.792 24.9183 36.6238 25.1673 36.4555 25.4186C36.2088 25.7862 35.9621 26.1537 35.6683 26.4809C35.2601 26.9386 34.7644 27.3085 34.2217 27.5645C33.948 27.6949 33.6587 27.7969 33.412 27.9771C33.1653 28.1573 32.9612 28.4442 32.9634 28.762C32.9634 28.9991 33.0801 29.2243 33.089 29.4614C32.8984 29.1176 32.5395 28.7359 31.9272 28.5486C31.3934 28.3873 30.8753 28.1786 30.3393 28.0269C29.6799 27.842 28.8276 27.7898 28.1592 27.6451C27.5783 27.5195 26.9929 27.4223 26.4053 27.3559C27.8183 27.5835 29.238 27.5242 30.651 27.2942C31.214 27.2017 31.7747 27.0737 32.313 26.8674C32.8535 26.6611 33.3671 26.3766 33.8762 26.0968C34.8631 25.5514 35.9756 25.2124 36.9624 24.667H36.9602Z" fill="#004098"/>
<path d="M25.001 24.3348C25.001 24.3348 26.7145 24.7925 26.9657 25.1315C26.9657 25.1315 34.7327 21.0888 37.312 20.5434C37.4264 20.5197 39.3912 20.1569 41.1025 21.3164C42.816 22.4759 46.012 24.7925 46.012 24.7925C46.012 24.7925 47.9992 25.9022 46.7882 28.6788C46.7882 28.6788 48.044 26.1203 48.2955 25.9022C48.2955 25.9022 47.8377 25.2382 47.5641 24.6644C47.2904 24.0906 44.0923 23.5832 39.8913 19.6969C39.8913 19.6969 39.1601 19.2393 36.4665 20.1806C33.7705 21.1219 28.0625 24.9371 25.0032 24.3325L25.001 24.3348Z" fill="#004098"/>
<path d="M26.7231 34.4811C26.5504 34.3697 26.3755 34.2654 26.1982 34.1658C26.3709 34.2749 26.5482 34.3792 26.7231 34.4811Z" fill="#004098"/>
<path d="M44.3007 36.6529C44.9717 36.1621 45.6848 35.6215 46.4071 35.0453C46.4071 35.0453 46.2139 40.4681 44.0988 43.1285C41.984 45.7913 36.4823 51.5743 36.4823 51.5743C36.4823 51.5743 44.597 43.7877 45.9964 43.1451C45.9964 43.1451 47.4453 34.9149 48.3538 33.1887C45.9024 35.0121 42.316 37.4022 39.407 37.4876C35.0491 37.6156 30.5432 36.7004 26.7236 34.4786C28.6076 35.6856 30.1148 37.5421 30.9514 39.6975C33.4051 39.1806 35.9709 39.496 38.4672 39.6714C38.77 39.6928 39.2836 39.7639 39.4025 39.7283C39.5685 39.6761 40.1628 39.3632 40.5374 39.1569C41.2619 38.7585 42.6614 37.8504 44.3007 36.6506V36.6529Z" fill="#004098"/>
<path d="M25.4068 18.4735C25.4068 18.4735 24.4536 18.7035 23.8525 18.905C23.8525 18.905 15.1323 15.5048 7.60973 16.3703C7.52897 16.3798 21.1947 17.4871 24.864 22.6348C25.8442 22.31 26.8692 21.8784 27.8896 21.409C27.4859 20.6952 26.3847 18.8884 25.4068 18.4735Z" fill="#004098"/>
<path d="M24.6761 11.0829C24.6761 11.0829 20.2285 9.95899 18.0889 8.96313C18.0889 8.96313 27.2442 13.7291 30.447 20.5485C31.0144 20.2687 31.5707 19.9865 32.1045 19.7186C31.4339 18.386 28.7155 13.3758 24.6739 11.0829H24.6761Z" fill="#004098"/>
<path d="M44.3368 16.9536C45.4759 18.4831 46.2117 20.3397 46.454 22.2674C48.1675 23.1447 49.2688 23.4767 49.4367 23.83C49.4842 23.9295 49.5377 24.0315 49.5916 24.1335C50.0872 21.7149 50.3248 19.1588 49.9998 16.7545C49.901 16.0242 49.7666 15.2986 49.5647 14.5944C49.5647 14.5944 48.5239 11.5831 47.8555 10.5469C47.8555 10.5469 49.0491 16.8067 48.3829 18.8696C48.3511 18.9667 48.3376 18.668 48.3133 18.5684C47.0819 13.5772 42.4638 8.85388 39.4831 6.23142C37.9646 4.89406 36.8701 4.10449 36.8701 4.10449C37.9557 4.98657 38.7586 6.20768 39.4068 7.48101C41.1248 10.8528 41.5958 14.9311 41.2527 18.7581C42.7868 20.067 44.1862 20.9988 45.3797 21.6817C45.0364 20.131 45.0321 18.3455 44.3368 16.9513V16.9536Z" fill="#004098"/>
<path d="M43.8088 50.3557C43.8088 50.3557 49.5014 48.6036 52.2644 48.5443C52.2644 48.5443 54.9177 45.3314 55.0839 44.3379C55.0839 44.3379 56.9632 46.9674 56.5755 47.3469C56.1874 47.7264 54.3099 48.4279 54.3099 48.4279C54.3099 48.4279 58.0693 47.5506 59.3946 47.61C59.3946 47.61 62.3012 37.4331 55.5682 36.9661C55.4068 36.9542 55.2541 37.049 55.1801 37.2008L53.6463 40.4231L53.6755 39.4012C53.729 37.6039 53.4623 35.8137 52.8901 34.1207L51.8697 31.0999C51.8697 31.0999 51.7105 43.2827 43.8066 50.3534L43.8088 50.3557Z" fill="#004098"/>
<path d="M52.5654 28.9919C52.5654 28.9919 54.3394 31.1947 55.1426 32.3707C55.4542 32.8307 55.8827 33.1817 56.374 33.3785C57.5736 33.8598 59.6352 34.685 59.7065 34.666C61.1446 34.3032 64.4506 33.3832 64.4841 32.4348C64.5311 31.1354 62.0662 27.3226 62.0662 27.3226L57.1298 25.9995C57.1298 25.9995 52.7203 26.6658 52.7425 26.5994C52.7651 26.533 59.8841 26.8911 61.0993 28.5248L62.1897 30.7441L59.5473 31.74L56.0172 31.1733L52.5676 28.9872L52.5654 28.9919Z" fill="#004098"/>
<path d="M38.5541 13.6671C35.7416 11.1987 30.7894 6.03676 29.5827 5.92296C29.0893 5.87553 28.6901 6.39243 28.5286 6.88804C28.2325 7.79617 28.172 8.78728 28.5488 9.65986C28.8919 10.4589 29.327 11.2082 29.7151 11.9836C30.7243 13.9943 32.0835 16.0501 33.1018 18.0561C33.187 18.2244 33.2767 18.3951 33.4113 18.5208C33.5571 18.6583 33.7455 18.7342 33.9271 18.803C34.3017 18.9452 34.3735 18.9808 34.7032 19.0851C35.0687 18.9239 35.4097 18.784 35.7147 18.6773C37.4081 18.0845 38.4488 17.9589 39.0543 17.9707C39.1911 17.7502 39.2741 17.4633 39.3728 17.2238C39.8864 15.9837 39.5365 14.5302 38.5497 13.6647L38.5541 13.6671ZM37.2802 15.9339C37.2309 16.0548 37.1882 16.1994 37.1187 16.3109C36.89 16.3062 36.5356 16.3417 36.013 16.484C35.8381 16.5314 35.6452 16.5931 35.4321 16.6666C35.2773 16.7211 35.1069 16.7899 34.9207 16.8728C34.7548 16.8207 34.7189 16.8017 34.5282 16.7306C34.4363 16.695 34.3421 16.6571 34.2681 16.5883C34.2008 16.5243 34.1537 16.4389 34.1111 16.3536C33.5975 15.3411 32.9111 14.3025 32.402 13.2877C32.2046 12.8965 31.9871 12.5171 31.8121 12.114C31.6215 11.673 31.6529 11.1727 31.8032 10.715C31.8839 10.4637 32.0857 10.2052 32.3347 10.2289C32.9448 10.2859 35.4433 12.8917 36.863 14.1389C37.361 14.5752 37.5382 15.3103 37.278 15.9363L37.2802 15.9339Z" fill="#004098"/>
<path d="M75.9941 40.1551V27.4719H78.9412V32.347H83.878V27.4719H86.825V40.1551H83.878V35.1899H78.9412V40.1551H75.9941Z" fill="#004098"/>
<path d="M87.7002 40.1551L92.6187 27.4719H95.9943L100.845 40.1551H97.6582L96.5617 37.0916H91.8829L90.7682 40.1551H87.7002ZM92.7732 34.6114H95.6867L94.2469 30.552L92.7732 34.6114Z" fill="#004098"/>
<path d="M101.72 40.1551V27.4719H104.497L109.947 34.8295V27.4719H112.724V40.1551H110.117L104.494 32.5082V40.1551H101.718H101.72Z" fill="#004098"/>
<path d="M119.134 40.3377C118.162 40.3377 117.202 40.1504 116.254 39.7757C115.305 39.4011 114.459 38.8818 113.717 38.2178L115.363 35.9535C116.094 36.5818 116.77 37.0323 117.386 37.3026C118.003 37.5753 118.66 37.7104 119.358 37.7104C119.815 37.7104 120.203 37.663 120.524 37.5658C120.845 37.4686 121.089 37.3263 121.262 37.139C121.432 36.9517 121.52 36.7312 121.52 36.4774C121.52 36.1265 121.394 35.8562 121.143 35.6618C120.892 35.4697 120.463 35.318 119.858 35.2089L117.218 34.7204C116.247 34.5402 115.498 34.1466 114.973 33.542C114.448 32.9374 114.185 32.1715 114.185 31.2396C114.185 30.4192 114.383 29.7126 114.778 29.1198C115.172 28.527 115.737 28.0742 116.475 27.7612C117.213 27.4482 118.091 27.2893 119.107 27.2893C119.997 27.2893 120.894 27.4505 121.798 27.7683C122.699 28.0884 123.482 28.5318 124.146 29.1009L122.587 31.4032C121.354 30.4002 120.125 29.8999 118.902 29.8999C118.503 29.8999 118.158 29.945 117.866 30.0351C117.575 30.1252 117.353 30.2532 117.198 30.4145C117.043 30.5781 116.967 30.7749 116.967 31.0025C116.967 31.3178 117.079 31.5574 117.301 31.7281C117.523 31.8964 117.886 32.0292 118.389 32.1264L120.874 32.5604C122.027 32.7548 122.906 33.1579 123.505 33.7743C124.103 34.3909 124.404 35.1876 124.404 36.1669C124.404 37.0252 124.193 37.765 123.769 38.3862C123.348 39.0074 122.742 39.4888 121.953 39.8279C121.166 40.167 120.228 40.3353 119.142 40.3353L119.134 40.3377Z" fill="#004098"/>
<path d="M131.027 40.3377C129.919 40.3377 128.955 40.1053 128.138 39.6406C127.322 39.1758 126.69 38.5143 126.245 37.656C125.799 36.7976 125.577 35.7899 125.577 34.6304V27.4719H128.524V34.6304C128.524 35.1995 128.627 35.6974 128.834 36.1242C129.04 36.5534 129.334 36.8829 129.717 37.1129C130.101 37.3429 130.543 37.4568 131.045 37.4568C131.548 37.4568 132.003 37.3429 132.373 37.1129C132.745 36.8829 133.032 36.5534 133.239 36.1242C133.445 35.695 133.548 35.1971 133.548 34.6304V27.4719H136.495V34.6304C136.495 35.778 136.269 36.781 135.818 37.6393C135.367 38.4977 134.732 39.1616 133.916 39.6334C133.1 40.1053 132.135 40.3401 131.027 40.3401V40.3377Z" fill="#004098"/>
<path d="M138.312 40.1551V27.4719H141.089L146.538 34.8295V27.4719H149.315V40.1551H146.709L141.086 32.5082V40.1551H138.31H138.312Z" fill="#004098"/>
<path d="M157.303 40.3543C156.401 40.3543 155.56 40.1884 154.784 39.8564C154.008 39.5244 153.324 39.0597 152.737 38.4622C152.149 37.8647 151.691 37.1699 151.366 36.3779C151.041 35.586 150.877 34.7324 150.877 33.8147C150.877 32.8971 151.041 32.0412 151.366 31.2516C151.691 30.4596 152.142 29.7649 152.721 29.1673C153.297 28.5698 153.975 28.1051 154.753 27.7731C155.529 27.4412 156.363 27.2751 157.256 27.2751C158.272 27.2751 159.232 27.4957 160.136 27.9367C161.037 28.3778 161.775 28.9847 162.347 29.7578L160.272 31.7329C159.884 31.2018 159.436 30.8034 158.927 30.5378C158.417 30.2723 157.861 30.1395 157.256 30.1395C156.776 30.1395 156.334 30.2343 155.928 30.4193C155.522 30.6066 155.168 30.8627 154.865 31.1899C154.562 31.5171 154.327 31.9036 154.163 32.3494C153.997 32.7975 153.914 33.286 153.914 33.8171C153.914 34.3482 153.999 34.8415 154.172 35.2943C154.342 35.7472 154.587 36.1408 154.901 36.4728C155.215 36.8047 155.581 37.0656 155.997 37.2529C156.415 37.4402 156.868 37.5327 157.361 37.5327C157.855 37.5327 158.256 37.4473 158.638 37.279C159.021 37.1106 159.349 36.8735 159.622 36.5724C159.896 36.2712 160.091 35.9251 160.205 35.5386H156.966V32.8378H163.394V33.7436C163.394 34.6968 163.242 35.5765 162.939 36.3803C162.636 37.1841 162.213 37.8836 161.672 38.4812C161.129 39.0787 160.486 39.541 159.743 39.8682C159.001 40.1955 158.189 40.3567 157.31 40.3567L157.303 40.3543Z" fill="#004098"/>
<path d="M75.9941 61.9009V49.2178H78.9416V59.1482H85.2664V61.9032H75.9941V61.9009Z" fill="#004098"/>
<path d="M86.9102 61.9009V49.2178H89.8572V61.9009H86.9102Z" fill="#004098"/>
<path d="M91.8467 61.9009V49.2178H94.7941V54.7617L99.6452 49.2178H103.211L97.6581 55.1789L103.521 61.9009H99.6139L94.7985 56.0847V61.9009H91.8515H91.8467Z" fill="#004098"/>
<path d="M103.828 61.9009V49.2178H113.288V51.9184H106.775V54.2019H111.077V56.8101H106.775V59.2025H113.358V61.9032H103.828V61.9009Z" fill="#004098"/>
<path d="M115.09 61.9009V49.2178H118.037V59.1482H124.362V61.9032H115.09V61.9009Z" fill="#004098"/>
<path d="M126.008 61.9009V49.2178H128.955V61.9009H126.008Z" fill="#004098"/>
<path d="M136.924 62.0999C136.022 62.0999 135.181 61.9339 134.405 61.6018C133.629 61.2701 132.947 60.805 132.366 60.2075C131.783 59.6104 131.33 58.9154 131.002 58.1237C130.677 57.3316 130.514 56.4778 130.514 55.5601C130.514 54.6429 130.677 53.7868 131.002 52.997C131.328 52.2053 131.783 51.5103 132.366 50.9127C132.949 50.3152 133.629 49.8506 134.405 49.5185C135.181 49.1868 136.022 49.0208 136.924 49.0208C137.825 49.0208 138.666 49.1868 139.442 49.5185C140.218 49.8506 140.9 50.3152 141.481 50.9127C142.062 51.5103 142.517 52.2053 142.845 52.997C143.17 53.7891 143.334 54.6429 143.334 55.5601C143.334 56.4778 143.17 57.3339 142.845 58.1237C142.519 58.9154 142.064 59.6104 141.481 60.2075C140.898 60.805 140.218 61.2701 139.442 61.6018C138.664 61.9339 137.825 62.0999 136.924 62.0999ZM136.924 59.2355C137.404 59.2355 137.85 59.143 138.26 58.9558C138.671 58.7686 139.03 58.5124 139.333 58.1853C139.635 57.8578 139.873 57.4691 140.044 57.016C140.214 56.5634 140.301 56.0772 140.301 55.5578C140.301 55.0385 140.216 54.5385 140.044 54.0904C139.873 53.6442 139.635 53.2555 139.333 52.9308C139.03 52.6037 138.673 52.3475 138.26 52.1603C137.85 51.9726 137.404 51.8801 136.924 51.8801C136.443 51.8801 135.997 51.9726 135.587 52.1603C135.176 52.3475 134.817 52.6037 134.515 52.9308C134.212 53.2578 133.974 53.6442 133.804 54.0904C133.633 54.5362 133.546 55.027 133.546 55.5578C133.546 56.0891 133.631 56.5634 133.804 57.016C133.974 57.4691 134.212 57.8578 134.515 58.1853C134.817 58.5124 135.174 58.7686 135.587 58.9558C135.997 59.143 136.443 59.2355 136.924 59.2355Z" fill="#004098"/>
<path d="M144.895 61.9009V49.2178H147.672L153.121 56.5755V49.2178H155.898V61.9009H153.292L147.669 54.2543V61.9009H144.893H144.895Z" fill="#004098"/>
</g>
</svg>
